<svg version="1.1" id="Layer_1" xmlns="http://www.w3.org/2000/svg" xmlns:xlink="http://www.w3.org/1999/xlink" x="0px" y="0px"
	 width="100%" viewBox="0 0 500 500" enable-background="new 0 0 500 500" xml:space="preserve">
<path fill="#3F4156" opacity="1.000000" stroke="none" 
	d="
M282.000000,501.000000 
	C188.000015,501.000000 94.500046,501.000000 1.000050,501.000000 
	C1.000033,334.333405 1.000033,167.666794 1.000017,1.000140 
	C167.666565,1.000093 334.333130,1.000093 500.999756,1.000046 
	C500.999847,167.666519 500.999847,334.333038 500.999939,500.999786 
	C428.166656,501.000000 355.333344,501.000000 282.000000,501.000000 
M325.710480,130.814651 
	C323.438019,129.170273 321.254272,127.382278 318.874390,125.911743 
	C314.066467,122.940948 312.709564,123.534645 309.978302,129.077957 
	C270.159119,126.052742 230.527023,127.682877 190.565216,133.261993 
	C189.318985,130.912720 188.026657,128.586594 186.833557,126.210640 
	C171.681702,96.037361 156.544113,65.856926 141.138580,35.022587 
	C136.004059,29.759163 121.036888,29.316931 116.486580,34.637150 
	C115.655998,35.608269 116.731590,38.209705 117.014435,40.774872 
	C118.176849,43.159008 119.326637,45.549397 120.503593,47.926331 
	C135.596344,78.406906 150.692947,108.885559 165.067734,139.627243 
	C160.455765,142.246185 155.445358,144.359146 151.325729,147.603287 
	C145.226715,152.406113 140.233261,158.355377 139.921158,166.735336 
	C138.768692,197.679626 136.796356,228.627640 136.815872,259.573212 
	C136.844452,304.875549 144.268829,349.220886 160.232483,391.707977 
	C167.058548,409.875488 177.040710,426.839142 184.304428,444.867310 
	C188.353500,454.916870 195.071777,460.393616 204.624130,463.631683 
	C207.145782,464.486450 209.638702,465.492432 212.223801,466.083588 
	C249.938843,474.707855 287.167908,473.690002 323.960297,460.930695 
	C331.738495,458.233276 336.939087,454.074280 338.663544,445.865387 
	C339.063751,443.960236 340.099548,442.140350 341.073425,440.411041 
	C370.665436,387.864746 384.027863,330.748688 386.274109,271.136169 
	C387.538574,237.577606 385.295227,203.884476 384.535980,170.254135 
	C384.390167,163.795059 382.710205,157.740021 378.579956,152.111160 
	C379.486511,150.528931 380.748840,149.044449 381.216736,147.341675 
	C381.929016,144.749268 382.091003,142.005676 382.486725,139.326294 
	C379.830322,138.982788 377.119080,138.140411 374.531738,138.424911 
	C371.453522,138.763412 368.458618,139.998779 365.468658,140.971680 
	C359.596771,142.882385 357.635162,141.638092 356.694672,135.687042 
	C356.049774,131.606232 355.334534,127.488998 354.101654,123.560333 
	C352.460052,118.329018 349.509644,117.639015 345.937469,121.873337 
	C343.093811,125.244110 341.108337,129.338852 337.989716,132.995712 
	C334.103180,132.389877 330.216644,131.784042 325.710480,130.814651 
z"/>
<path fill="#F0AEAA" opacity="1.000000" stroke="none" 
	d="
M141.402893,35.678310 
	C156.544113,65.856926 171.681702,96.037361 186.833557,126.210640 
	C188.026657,128.586594 189.318985,130.912720 190.838974,133.801132 
	C191.553375,135.223969 191.994034,136.107666 192.566345,137.348953 
	C193.391769,139.214111 194.092758,140.718384 194.778229,142.229721 
	C204.716675,164.142273 214.653061,186.055786 224.121201,207.974976 
	C214.274445,206.347748 204.896423,204.714600 195.377075,202.719528 
	C185.810806,182.187775 176.385880,162.017944 166.885590,141.511475 
	C166.469681,140.571442 166.129135,139.968063 165.788589,139.364700 
	C150.692947,108.885559 135.596344,78.406906 120.503593,47.926331 
	C119.326637,45.549397 118.176849,43.159008 116.999954,40.393494 
	C116.985481,40.012112 117.043449,39.965347 117.414703,39.999454 
	C121.063072,40.969891 124.288521,42.369968 127.628510,42.742111 
	C133.811325,43.431011 138.830032,40.629124 141.098419,35.921604 
	C141.199921,35.840508 141.402893,35.678310 141.402893,35.678310 
M179.910370,158.622116 
	C186.835938,172.141449 192.443039,186.355103 200.615250,199.217926 
	C200.461014,192.578308 150.221695,89.362999 145.827072,87.409683 
	C157.391006,111.574509 168.487228,134.761978 179.910370,158.622116 
M133.957779,63.574902 
	C136.963943,68.988503 139.970108,74.402100 142.976257,79.815697 
	C143.656097,79.412086 144.335938,79.008484 145.015778,78.604874 
	C141.135040,71.200287 137.254318,63.795696 133.373581,56.391106 
	C132.704376,56.707806 132.035172,57.024506 131.365967,57.341209 
	C132.121323,59.204273 132.876663,61.067337 133.957779,63.574902 
z"/>
<path fill="#DF4C47" opacity="1.000000" stroke="none" 
	d="
M165.428162,139.495972 
	C166.129135,139.968063 166.469681,140.571442 166.533813,141.597595 
	C160.746353,145.596497 154.525436,148.432205 149.867386,152.898026 
	C139.134781,163.187729 140.382614,177.287384 152.365646,186.316742 
	C165.126358,195.932114 180.052902,200.272110 195.518402,203.081451 
	C204.896423,204.714600 214.274445,206.347748 224.513031,208.031982 
	C252.218613,211.356186 279.121613,211.993149 306.248688,210.072540 
	C306.634521,210.966187 306.857239,211.645508 306.619568,212.426392 
	C304.178955,212.698715 302.200165,212.888535 300.218262,213.037354 
	C275.497589,214.893524 250.852509,213.562485 225.918060,211.189606 
	C216.238434,209.728760 206.871307,208.349899 197.160919,206.855499 
	C195.690292,206.457108 194.560638,206.182983 193.435867,205.890076 
	C174.603256,200.985657 155.458679,196.700073 142.187073,179.519287 
	C141.894653,181.597137 141.620132,183.010239 141.506088,184.436172 
	C137.952026,228.868988 137.423340,273.237305 144.218933,317.463959 
	C150.331146,357.243011 161.804657,395.257172 180.181137,431.213318 
	C184.850937,440.350464 190.890167,445.870331 200.832779,448.685059 
	C245.491882,461.327850 289.441956,458.157410 332.975067,443.718445 
	C335.444946,442.899261 337.818573,440.241821 339.174255,437.840027 
	C366.044891,390.235657 378.511353,338.459137 382.910065,284.457001 
	C385.456451,253.195984 384.247742,221.902252 382.701569,190.630035 
	C382.558594,187.738220 382.169434,184.858582 381.976471,182.832993 
	C378.329681,186.007309 374.608337,189.246490 370.533936,192.604553 
	C368.042267,193.837616 365.903687,194.951797 363.437561,196.071884 
	C362.675751,196.018051 362.241577,195.958298 361.937134,195.584229 
	C365.781799,192.147827 369.496765,189.025696 373.390076,185.780243 
	C373.778961,185.451950 373.940094,185.213608 374.005066,184.957596 
	C373.958344,184.973328 373.988251,185.067307 374.306030,184.938080 
	C383.420624,175.790771 384.056763,166.664932 376.810669,154.615402 
	C377.349823,153.837997 377.789825,153.304489 378.229828,152.770996 
	C382.710205,157.740021 384.390167,163.795059 384.535980,170.254135 
	C385.295227,203.884476 387.538574,237.577606 386.274109,271.136169 
	C384.027863,330.748688 370.665436,387.864746 341.073425,440.411041 
	C340.099548,442.140350 339.063751,443.960236 338.663544,445.865387 
	C336.939087,454.074280 331.738495,458.233276 323.960297,460.930695 
	C287.167908,473.690002 249.938843,474.707855 212.223801,466.083588 
	C209.638702,465.492432 207.145782,464.486450 204.624130,463.631683 
	C195.071777,460.393616 188.353500,454.916870 184.304428,444.867310 
	C177.040710,426.839142 167.058548,409.875488 160.232483,391.707977 
	C144.268829,349.220886 136.844452,304.875549 136.815872,259.573212 
	C136.796356,228.627640 138.768692,197.679626 139.921158,166.735336 
	C140.233261,158.355377 145.226715,152.406113 151.325729,147.603287 
	C155.445358,144.359146 160.455765,142.246185 165.428162,139.495972 
M323.956360,449.460876 
	C322.509949,449.841522 321.059906,450.208801 319.617706,450.604828 
	C287.438049,459.440826 254.911789,462.568878 221.912628,456.022552 
	C211.060501,453.869751 200.349335,451.006287 187.919724,448.078125 
	C190.961945,451.371429 192.776031,454.489838 195.486679,456.019653 
	C200.511932,458.855865 205.867813,461.881989 211.429260,462.843353 
	C226.611954,465.467896 241.927414,468.169342 257.274536,468.804291 
	C281.754211,469.817108 305.625885,465.586731 328.401917,456.027740 
	C332.848999,454.161285 334.384399,450.971680 334.722504,446.294464 
	C331.095062,447.355804 327.913330,448.286774 323.956360,449.460876 
z"/>
<path fill="#9CA222" opacity="1.000000" stroke="none" 
	d="
M378.404907,152.441071 
	C377.789825,153.304489 377.349823,153.837997 376.533417,154.784912 
	C372.097168,158.255432 368.037323,161.312576 363.643127,164.225311 
	C349.671936,155.813614 334.953308,152.736633 319.011658,154.562134 
	C314.157715,147.561462 311.343018,140.178391 310.784729,131.631683 
	C310.840363,130.545166 310.834686,129.818222 310.828979,129.091278 
	C312.709564,123.534645 314.066467,122.940948 318.874390,125.911743 
	C321.254272,127.382278 323.438019,129.170273 326.155823,131.226166 
	C327.577484,132.692245 328.553741,133.746796 329.760071,135.091125 
	C331.822845,137.937698 333.655548,140.494476 336.086975,143.886597 
	C336.802460,140.558090 337.302948,138.229797 337.911804,135.626007 
	C338.260773,134.604416 338.501312,133.858322 338.741882,133.112213 
	C341.108337,129.338852 343.093811,125.244110 345.937469,121.873337 
	C349.509644,117.639015 352.460052,118.329018 354.101654,123.560333 
	C355.334534,127.488998 356.049774,131.606232 356.694672,135.687042 
	C357.635162,141.638092 359.596771,142.882385 365.468658,140.971680 
	C368.458618,139.998779 371.453522,138.763412 374.531738,138.424911 
	C377.119080,138.140411 379.830322,138.982788 382.486725,139.326294 
	C382.091003,142.005676 381.929016,144.749268 381.216736,147.341675 
	C380.748840,149.044449 379.486511,150.528931 378.404907,152.441071 
z"/>
<path fill="#DD4C47" opacity="1.000000" stroke="none" 
	d="
M310.403625,129.084625 
	C310.834686,129.818222 310.840363,130.545166 310.347565,131.619415 
	C279.665588,129.527512 249.505127,129.638779 219.403534,133.086472 
	C210.383179,134.119644 201.422638,135.675171 192.434692,136.991364 
	C191.994034,136.107666 191.553375,135.223969 191.095139,134.098450 
	C230.527023,127.682877 270.159119,126.052742 310.403625,129.084625 
z"/>
<path fill="#F0AEAA" opacity="1.000000" stroke="none" 
	d="
M116.956375,40.035336 
	C116.731590,38.209705 115.655998,35.608269 116.486580,34.637150 
	C121.036888,29.316931 136.004059,29.759163 141.270737,35.350449 
	C141.402893,35.678310 141.199921,35.840508 140.720459,35.911285 
	C133.524796,39.375534 126.774467,42.164730 119.301048,37.910351 
	C119.027206,37.754463 117.817184,39.243107 117.043449,39.965347 
	C117.043449,39.965347 116.985481,40.012112 116.956375,40.035336 
z"/>
<path fill="#DA5045" opacity="1.000000" stroke="none" 
	d="
M329.529999,134.801331 
	C328.553741,133.746796 327.577484,132.692245 326.465637,131.407959 
	C330.216644,131.784042 334.103180,132.389877 338.365784,133.053955 
	C338.501312,133.858322 338.260773,134.604416 337.527374,135.529816 
	C334.533020,135.406525 332.031494,135.103928 329.529999,134.801331 
z"/>
<path fill="#404156" opacity="1.000000" stroke="none" 
	d="
M192.566345,137.348953 
	C201.422638,135.675171 210.383179,134.119644 219.403534,133.086472 
	C249.505127,129.638779 279.665588,129.527512 310.286224,131.978973 
	C311.343018,140.178391 314.157715,147.561462 318.666321,154.718201 
	C305.020508,159.508087 301.194916,164.550308 301.175476,178.098389 
	C301.172394,180.241821 301.222168,182.418320 301.578552,184.523499 
	C303.010162,192.980377 304.571930,201.415222 306.085571,209.858215 
	C279.121613,211.993149 252.218613,211.356186 224.981766,208.026062 
	C214.653061,186.055786 204.716675,164.142273 194.778229,142.229721 
	C194.092758,140.718384 193.391769,139.214111 192.566345,137.348953 
z"/>
<path fill="#424257" opacity="1.000000" stroke="none" 
	d="
M195.377075,202.719543 
	C180.052902,200.272110 165.126358,195.932114 152.365646,186.316742 
	C140.382614,177.287384 139.134781,163.187729 149.867386,152.898026 
	C154.525436,148.432205 160.746353,145.596497 166.609177,141.934235 
	C176.385880,162.017944 185.810806,182.187775 195.377075,202.719543 
M147.365601,164.060669 
	C146.281281,168.580704 145.610184,173.054169 147.818253,177.120605 
	C149.610962,170.814468 150.067215,164.027161 153.342941,159.123199 
	C156.715683,154.073990 162.836670,150.860550 167.724838,146.868622 
	C160.383118,146.379349 152.027603,153.218613 147.365601,164.060669 
z"/>
<path fill="#F57884" opacity="1.000000" stroke="none" 
	d="
M179.746902,158.285782 
	C168.487228,134.761978 157.391006,111.574509 145.827072,87.409683 
	C150.221695,89.362999 200.461014,192.578308 200.615250,199.217926 
	C192.443039,186.355103 186.835938,172.141449 179.746902,158.285782 
z"/>
<path fill="#F57985" opacity="1.000000" stroke="none" 
	d="
M133.794891,63.252651 
	C132.876663,61.067337 132.121323,59.204273 131.365967,57.341209 
	C132.035172,57.024506 132.704376,56.707806 133.373581,56.391106 
	C137.254318,63.795696 141.135040,71.200287 145.015778,78.604874 
	C144.335938,79.008484 143.656097,79.412086 142.976257,79.815697 
	C139.970108,74.402100 136.963943,68.988503 133.794891,63.252651 
z"/>
<path fill="#F1564F" opacity="1.000000" stroke="none" 
	d="
M117.414703,39.999454 
	C117.817184,39.243107 119.027206,37.754463 119.301048,37.910351 
	C126.774467,42.164730 133.524796,39.375534 140.618958,35.992382 
	C138.830032,40.629124 133.811325,43.431011 127.628510,42.742111 
	C124.288521,42.369968 121.063072,40.969891 117.414703,39.999454 
z"/>
<path fill="#434156" opacity="1.000000" stroke="none" 
	d="
M370.887024,192.485687 
	C374.608337,189.246490 378.329681,186.007309 381.976471,182.832993 
	C382.169434,184.858582 382.558594,187.738220 382.701569,190.630035 
	C384.247742,221.902252 385.456451,253.195984 382.910065,284.457001 
	C378.511353,338.459137 366.044891,390.235657 339.174255,437.840027 
	C337.818573,440.241821 335.444946,442.899261 332.975067,443.718445 
	C289.441956,458.157410 245.491882,461.327850 200.832779,448.685059 
	C190.890167,445.870331 184.850937,440.350464 180.181137,431.213318 
	C161.804657,395.257172 150.331146,357.243011 144.218933,317.463959 
	C137.423340,273.237305 137.952026,228.868988 141.506088,184.436172 
	C141.620132,183.010239 141.894653,181.597137 142.187073,179.519287 
	C155.458679,196.700073 174.603256,200.985657 193.435867,205.890076 
	C194.560638,206.182983 195.690292,206.457108 197.260193,207.233902 
	C199.973770,213.378738 202.244858,219.029663 204.006805,224.653046 
	C188.919724,225.951523 174.277969,226.803879 159.784378,228.756149 
	C148.559113,230.268188 145.289658,235.213242 145.382767,246.558746 
	C145.599136,272.925659 147.843521,299.087006 151.882126,325.162415 
	C157.131256,359.053375 168.415634,390.956573 182.382462,422.040100 
	C185.680344,429.379669 190.785202,435.359253 198.648590,438.119507 
	C205.549530,440.541901 212.536835,442.799591 219.618881,444.610321 
	C247.612000,451.767487 275.569916,453.740356 304.025177,446.087341 
	C323.416504,440.871979 338.330750,432.615936 346.002075,412.143280 
	C359.390747,376.412659 370.403564,340.241760 374.445679,302.233490 
	C376.187592,285.854370 376.836487,269.355743 377.825470,252.902008 
	C378.086273,248.562164 377.294952,244.446945 372.170593,243.029022 
	C367.199280,241.653427 362.270020,240.073151 357.234619,238.990341 
	C316.055328,230.135254 274.287140,226.499969 232.092636,224.767426 
	C230.017029,220.052933 228.123779,215.662262 226.230530,211.271576 
	C250.852509,213.562485 275.497589,214.893524 300.218262,213.037354 
	C302.200165,212.888535 304.178955,212.698715 306.872162,212.682388 
	C308.830200,214.606949 310.004791,216.431870 311.331543,218.138519 
	C322.053223,231.930389 339.317291,234.061371 351.615692,222.755661 
	C355.355286,219.317947 358.129730,214.830338 361.537354,210.591034 
	C362.550323,208.925415 363.372162,207.492355 364.437317,205.829819 
	C366.749481,201.228790 368.818237,196.857254 370.887024,192.485687 
M179.698792,207.054077 
	C171.075668,204.301865 162.452545,201.549652 153.807037,198.790298 
	C158.259232,205.776459 186.604233,213.866364 193.212479,209.310532 
	C188.560608,208.533356 184.553848,207.863968 179.698792,207.054077 
M150.062378,213.498337 
	C150.062378,208.008652 150.062378,202.518967 150.062378,195.682831 
	C146.488739,200.545212 146.437943,223.802490 150.062378,227.667328 
	C150.062378,222.511475 150.062378,218.497589 150.062378,213.498337 
z"/>
<path fill="#BD1C34" opacity="1.000000" stroke="none" 
	d="
M361.346222,210.823578 
	C358.129730,214.830338 355.355286,219.317947 351.615692,222.755661 
	C339.317291,234.061371 322.053223,231.930389 311.331543,218.138519 
	C310.004791,216.431870 308.830200,214.606949 307.332520,212.580841 
	C306.857239,211.645508 306.634521,210.966187 306.248688,210.072540 
	C304.571930,201.415222 303.010162,192.980377 301.578552,184.523499 
	C301.222168,182.418320 301.172394,180.241821 301.175476,178.098389 
	C301.194916,164.550308 305.020508,159.508087 318.802002,155.033051 
	C334.953308,152.736633 349.671936,155.813614 363.853027,164.461243 
	C371.250885,169.849533 374.380524,176.623367 373.988251,185.067307 
	C373.988251,185.067307 373.958344,184.973328 373.851929,185.106308 
	C373.536743,185.435928 373.358795,185.657364 373.211700,185.903580 
	C369.496765,189.025696 365.781799,192.147827 361.765259,195.962463 
	C361.424500,201.377853 361.385345,206.100723 361.346222,210.823578 
z"/>
<path fill="#434156" opacity="1.000000" stroke="none" 
	d="
M324.343994,449.339294 
	C327.913330,448.286774 331.095062,447.355804 334.722504,446.294464 
	C334.384399,450.971680 332.848999,454.161285 328.401917,456.027740 
	C305.625885,465.586731 281.754211,469.817108 257.274536,468.804291 
	C241.927414,468.169342 226.611954,465.467896 211.429260,462.843353 
	C205.867813,461.881989 200.511932,458.855865 195.486679,456.019653 
	C192.776031,454.489838 190.961945,451.371429 187.919724,448.078125 
	C200.349335,451.006287 211.060501,453.869751 221.912628,456.022552 
	C254.911789,462.568878 287.438049,459.440826 319.617706,450.604828 
	C321.059906,450.208801 322.509949,449.841522 324.343994,449.339294 
z"/>
<path fill="#F1AEAA" opacity="1.000000" stroke="none" 
	d="
M204.515945,224.680573 
	C202.244858,219.029663 199.973770,213.378738 197.603424,207.349426 
	C206.871307,208.349899 216.238434,209.728760 225.918060,211.189606 
	C228.123779,215.662262 230.017029,220.052933 232.171692,225.096863 
	C236.007828,234.182343 239.582535,242.614578 242.766296,251.219330 
	C233.355469,253.194824 224.612137,251.666016 215.685608,248.958633 
	C211.788315,240.706055 208.152130,232.693314 204.515945,224.680573 
M211.861404,219.657730 
	C210.470413,216.986969 209.079437,214.316223 207.688446,211.645462 
	C206.996872,212.009430 206.305298,212.373398 205.613724,212.737350 
	C211.543411,225.121017 217.473099,237.504684 223.402786,249.888351 
	C224.177475,249.527908 224.952148,249.167465 225.726822,248.807022 
	C221.212845,239.313797 216.698868,229.820557 211.861404,219.657730 
z"/>
<path fill="#444155" opacity="1.000000" stroke="none" 
	d="
M374.306030,184.938080 
	C374.380524,176.623367 371.250885,169.849533 364.187378,164.605652 
	C368.037323,161.312576 372.097168,158.255432 376.434265,155.028809 
	C384.056763,166.664932 383.420624,175.790771 374.306030,184.938080 
z"/>
<path fill="#B71E35" opacity="1.000000" stroke="none" 
	d="
M370.533936,192.604584 
	C368.818237,196.857254 366.749481,201.228790 364.393127,205.375366 
	C363.992096,202.122269 363.878632,199.094116 363.765137,196.065979 
	C365.903687,194.951797 368.042267,193.837616 370.533936,192.604584 
z"/>
<path fill="#EE6978" opacity="1.000000" stroke="none" 
	d="
M363.437561,196.071899 
	C363.878632,199.094116 363.992096,202.122269 364.149780,205.604858 
	C363.372162,207.492355 362.550323,208.925415 361.537354,210.591034 
	C361.385345,206.100723 361.424500,201.377853 361.635498,196.276764 
	C362.241577,195.958298 362.675751,196.018051 363.437561,196.071899 
z"/>
<path fill="#444155" opacity="1.000000" stroke="none" 
	d="
M373.390076,185.780243 
	C373.358795,185.657364 373.536743,185.435928 373.898651,185.090576 
	C373.940094,185.213608 373.778961,185.451950 373.390076,185.780243 
z"/>
<path fill="#4B4951" opacity="1.000000" stroke="none" 
	d="
M329.760071,135.091125 
	C332.031494,135.103928 334.533020,135.406525 337.418945,135.805298 
	C337.302948,138.229797 336.802460,140.558090 336.086975,143.886597 
	C333.655548,140.494476 331.822845,137.937698 329.760071,135.091125 
z"/>
<path fill="#DEA4A3" opacity="1.000000" stroke="none" 
	d="
M147.517761,163.697586 
	C152.027603,153.218613 160.383118,146.379349 167.724838,146.868622 
	C162.836670,150.860550 156.715683,154.073990 153.342941,159.123199 
	C150.067215,164.027161 149.610962,170.814468 147.818253,177.120605 
	C145.610184,173.054169 146.281281,168.580704 147.517761,163.697586 
z"/>
<path fill="#F14D45" opacity="1.000000" stroke="none" 
	d="
M243.157257,251.046799 
	C239.582535,242.614578 236.007828,234.182343 232.354034,225.420685 
	C274.287140,226.499969 316.055328,230.135254 357.234619,238.990341 
	C362.270020,240.073151 367.199280,241.653427 372.170593,243.029022 
	C377.294952,244.446945 378.086273,248.562164 377.825470,252.902008 
	C376.836487,269.355743 376.187592,285.854370 374.445679,302.233490 
	C370.403564,340.241760 359.390747,376.412659 346.002075,412.143280 
	C338.330750,432.615936 323.416504,440.871979 304.025177,446.087341 
	C275.569916,453.740356 247.612000,451.767487 219.618881,444.610321 
	C212.536835,442.799591 205.549530,440.541901 198.648590,438.119507 
	C190.785202,435.359253 185.680344,429.379669 182.382462,422.040100 
	C168.415634,390.956573 157.131256,359.053375 151.882126,325.162415 
	C147.843521,299.087006 145.599136,272.925659 145.382767,246.558746 
	C145.289658,235.213242 148.559113,230.268188 159.784378,228.756149 
	C174.277969,226.803879 188.919724,225.951523 204.006805,224.653046 
	C208.152130,232.693314 211.788315,240.706055 215.744690,249.313019 
	C216.749115,251.710403 217.433334,253.513565 217.694794,255.273163 
	C213.909103,254.178162 210.546158,253.126694 207.183197,252.075226 
	C207.815079,254.029572 209.092590,255.853073 210.829254,256.580719 
	C213.712341,257.788666 216.890503,258.292358 220.050903,259.434845 
	C222.383179,265.436798 224.608917,271.096619 226.458694,276.697632 
	C207.641998,273.467224 189.786911,268.312622 172.688675,260.675598 
	C163.207260,256.440643 153.810211,252.028900 149.640747,241.388458 
	C149.516357,241.071030 148.852570,240.964951 147.262726,240.175919 
	C147.990616,242.936691 147.917648,245.379547 149.102127,246.650391 
	C152.888428,250.712723 156.534012,255.633957 161.331268,257.885437 
	C174.080444,263.868896 187.224716,269.154846 200.559570,273.697418 
	C210.107910,276.950134 220.217514,278.555206 230.108978,281.274933 
	C230.725052,283.380768 231.182205,285.162598 231.911377,286.825134 
	C246.226257,319.463806 260.553284,352.097137 274.921387,384.712433 
	C281.702454,400.105255 288.597839,415.447784 295.387085,430.837067 
	C296.838776,434.127533 299.049042,437.218048 302.686798,436.552277 
	C308.123383,435.557251 313.506989,433.753265 318.592468,431.552521 
	C321.687408,430.213165 322.008057,427.226379 320.485901,423.866730 
	C307.015594,394.135529 293.598145,364.379700 280.336151,334.555054 
	C272.760223,317.517700 265.502319,300.338928 258.533691,283.201599 
	C273.929779,283.126831 288.922699,283.641510 303.849396,282.872101 
	C320.889130,281.993744 337.524506,278.430573 353.237518,271.456635 
	C360.628296,268.176392 367.454956,263.955292 371.682068,256.750824 
	C372.949921,254.589859 373.275726,251.876190 374.033112,249.415741 
	C373.557373,249.242874 373.081635,249.070023 372.605896,248.897156 
	C372.141357,249.473328 371.450745,249.979446 371.247070,250.636490 
	C369.078247,257.634094 364.287109,262.606293 357.933014,265.460083 
	C349.017395,269.464355 339.922211,273.494843 330.487305,275.833893 
	C306.009460,281.902313 281.045868,282.173309 255.920715,279.616760 
	C252.912735,272.580383 250.006409,265.887634 247.505676,259.141296 
	C250.966461,258.474518 254.021637,257.861298 257.076813,257.248077 
	C256.990173,256.628571 256.903534,256.009094 256.816895,255.389603 
	C252.857910,255.648254 248.898941,255.906921 244.878662,255.825714 
	C244.263977,254.006149 243.710632,252.526474 243.157257,251.046799 
M148.959381,268.599548 
	C151.297913,289.594238 152.670364,310.752747 156.196091,331.546112 
	C161.812943,364.672241 173.953979,395.634064 191.139297,424.552917 
	C192.106186,426.179962 193.476288,427.567444 194.658722,429.066406 
	C195.123566,428.750793 195.588425,428.435211 196.053284,428.119629 
	C195.120758,426.307190 194.284500,424.437256 193.241318,422.690918 
	C177.026169,395.546753 166.222626,366.337494 159.619705,335.474213 
	C154.477188,311.437286 152.542450,287.071075 151.533737,262.586578 
	C151.454697,260.667877 150.946701,258.766815 150.638062,256.857574 
	C150.075806,256.910767 149.513550,256.963928 148.951294,257.017120 
	C148.951294,260.562256 148.951294,264.107422 148.959381,268.599548 
M170.897232,232.093597 
	C181.439484,231.351089 191.981750,230.608597 202.524002,229.866104 
	C202.532822,229.352936 202.541641,228.839767 202.550461,228.326599 
	C201.552734,228.043991 200.538910,227.469833 199.559738,227.523865 
	C189.787872,228.062973 180.004608,228.516312 170.261169,229.398407 
	C165.343307,229.843628 160.381058,230.728256 155.670700,232.171021 
	C153.043137,232.975845 149.929016,234.635406 150.696198,240.445312 
	C155.774094,232.232147 163.319046,233.491898 170.897232,232.093597 
z"/>
<path fill="#DEA4A3" opacity="1.000000" stroke="none" 
	d="
M180.122940,207.124329 
	C184.553848,207.863968 188.560608,208.533356 193.212479,209.310532 
	C186.604233,213.866364 158.259232,205.776459 153.807037,198.790298 
	C162.452545,201.549652 171.075668,204.301865 180.122940,207.124329 
z"/>
<path fill="#D9A1A0" opacity="1.000000" stroke="none" 
	d="
M150.062378,213.991028 
	C150.062378,218.497589 150.062378,222.511475 150.062378,227.667328 
	C146.437943,223.802490 146.488739,200.545212 150.062378,195.682831 
	C150.062378,202.518967 150.062378,208.008652 150.062378,213.991028 
z"/>
<path fill="#F3605A" opacity="1.000000" stroke="none" 
	d="
M218.117554,255.316711 
	C217.433334,253.513565 216.749115,251.710403 216.005798,249.552856 
	C224.612137,251.666016 233.355469,253.194824 242.766296,251.219330 
	C243.710632,252.526474 244.263977,254.006149 244.505493,255.972443 
	C235.501617,256.078278 226.809586,255.697510 218.117554,255.316711 
z"/>
<path fill="#F57984" opacity="1.000000" stroke="none" 
	d="
M212.023132,219.992523 
	C216.698868,229.820557 221.212845,239.313797 225.726822,248.807022 
	C224.952148,249.167465 224.177475,249.527908 223.402786,249.888351 
	C217.473099,237.504684 211.543411,225.121017 205.613724,212.737350 
	C206.305298,212.373398 206.996872,212.009430 207.688446,211.645462 
	C209.079437,214.316223 210.470413,216.986969 212.023132,219.992523 
z"/>
<path fill="#F35E58" opacity="1.000000" stroke="none" 
	d="
M258.101227,283.223877 
	C265.502319,300.338928 272.760223,317.517700 280.336151,334.555054 
	C293.598145,364.379700 307.015594,394.135529 320.485901,423.866730 
	C322.008057,427.226379 321.687408,430.213165 318.592468,431.552521 
	C313.506989,433.753265 308.123383,435.557251 302.686798,436.552277 
	C299.049042,437.218048 296.838776,434.127533 295.387085,430.837067 
	C288.597839,415.447784 281.702454,400.105255 274.921387,384.712433 
	C260.553284,352.097137 246.226257,319.463806 231.911377,286.825134 
	C231.182205,285.162598 230.725052,283.380768 230.547424,281.282898 
	C240.002808,281.682129 249.052017,282.453003 258.101227,283.223877 
z"/>
<path fill="#F5707B" opacity="1.000000" stroke="none" 
	d="
M258.533691,283.201630 
	C249.052017,282.453003 240.002808,281.682129 230.515152,280.903320 
	C220.217514,278.555206 210.107910,276.950134 200.559570,273.697418 
	C187.224716,269.154846 174.080444,263.868896 161.331268,257.885437 
	C156.534012,255.633957 152.888428,250.712723 149.102127,246.650391 
	C147.917648,245.379547 147.990616,242.936691 147.262726,240.175919 
	C148.852570,240.964951 149.516357,241.071030 149.640747,241.388458 
	C153.810211,252.028900 163.207260,256.440643 172.688675,260.675598 
	C189.786911,268.312622 207.641998,273.467224 226.899200,276.762421 
	C237.151260,277.910828 246.586807,278.935608 256.022369,279.960358 
	C281.045868,282.173309 306.009460,281.902313 330.487305,275.833893 
	C339.922211,273.494843 349.017395,269.464355 357.933014,265.460083 
	C364.287109,262.606293 369.078247,257.634094 371.247070,250.636490 
	C371.450745,249.979446 372.141357,249.473328 372.605896,248.897156 
	C373.081635,249.070023 373.557373,249.242874 374.033112,249.415741 
	C373.275726,251.876190 372.949921,254.589859 371.682068,256.750824 
	C367.454956,263.955292 360.628296,268.176392 353.237518,271.456635 
	C337.524506,278.430573 320.889130,281.993744 303.849396,282.872101 
	C288.922699,283.641510 273.929779,283.126831 258.533691,283.201630 
z"/>
<path fill="#F2A7A2" opacity="1.000000" stroke="none" 
	d="
M148.955338,268.126038 
	C148.951294,264.107422 148.951294,260.562256 148.951294,257.017120 
	C149.513550,256.963928 150.075806,256.910767 150.638062,256.857574 
	C150.946701,258.766815 151.454697,260.667877 151.533737,262.586578 
	C152.542450,287.071075 154.477188,311.437286 159.619705,335.474213 
	C166.222626,366.337494 177.026169,395.546753 193.241318,422.690918 
	C194.284500,424.437256 195.120758,426.307190 196.053284,428.119629 
	C195.588425,428.435211 195.123566,428.750793 194.658722,429.066406 
	C193.476288,427.567444 192.106186,426.179962 191.139297,424.552917 
	C173.953979,395.634064 161.812943,364.672241 156.196091,331.546112 
	C152.670364,310.752747 151.297913,289.594238 148.955338,268.126038 
z"/>
<path fill="#F35E58" opacity="1.000000" stroke="none" 
	d="
M255.920715,279.616760 
	C246.586807,278.935608 237.151260,277.910828 227.275177,276.821228 
	C224.608917,271.096619 222.383179,265.436798 220.480911,259.440674 
	C229.569611,259.134521 238.334839,259.164673 247.100067,259.194855 
	C250.006409,265.887634 252.912735,272.580383 255.920715,279.616760 
z"/>
<path fill="#F2A49F" opacity="1.000000" stroke="none" 
	d="
M170.447662,232.138672 
	C163.319046,233.491898 155.774094,232.232147 150.696198,240.445312 
	C149.929016,234.635406 153.043137,232.975845 155.670700,232.171021 
	C160.381058,230.728256 165.343307,229.843628 170.261169,229.398407 
	C180.004608,228.516312 189.787872,228.062973 199.559738,227.523865 
	C200.538910,227.469833 201.552734,228.043991 202.550461,228.326599 
	C202.541641,228.839767 202.532822,229.352936 202.524002,229.866104 
	C191.981750,230.608597 181.439484,231.351089 170.447662,232.138672 
z"/>
<path fill="#F5707B" opacity="1.000000" stroke="none" 
	d="
M247.505676,259.141296 
	C238.334839,259.164673 229.569611,259.134521 220.374359,259.098541 
	C216.890503,258.292358 213.712341,257.788666 210.829254,256.580719 
	C209.092590,255.853073 207.815079,254.029572 207.183197,252.075226 
	C210.546158,253.126694 213.909103,254.178162 217.694809,255.273163 
	C226.809586,255.697510 235.501617,256.078278 244.566803,256.312317 
	C248.898941,255.906921 252.857910,255.648254 256.816895,255.389603 
	C256.903534,256.009094 256.990173,256.628571 257.076813,257.248077 
	C254.021637,257.861298 250.966461,258.474518 247.505676,259.141296 
z"/>
</svg>